<svg width="278" height="94" viewBox="0 0 278 94" fill="none" xmlns="http://www.w3.org/2000/svg">
<path fill-rule="evenodd" clip-rule="evenodd" d="M238.023 43.4501C239.966 44.2905 241.737 45.3321 243.336 46.5749L234.781 53.0925C232.395 51.7522 229.732 51.0821 226.791 51.0821C223.671 51.0821 220.887 51.7781 218.439 53.1701C215.991 54.5141 214.071 56.4101 212.679 58.8581C211.335 61.3061 210.663 64.0901 210.663 67.2101C210.663 69.9652 211.187 72.4584 212.235 74.6895L203.038 81.6959C202.813 81.3618 202.595 81.0212 202.383 80.6741C200.031 76.6901 198.855 72.2021 198.855 67.2101C198.855 62.2181 200.031 57.7541 202.383 53.8181C204.783 49.8341 208.047 46.7381 212.175 44.5301C216.351 42.2741 221.031 41.1461 226.215 41.1461C230.583 41.1461 234.519 41.9141 238.023 43.4501ZM215.145 78.8204L206.26 85.5891C207.981 87.2901 209.953 88.7478 212.175 89.9621C216.351 92.1701 221.007 93.2741 226.143 93.2741C230.511 93.2741 234.471 92.5061 238.023 90.9701C241.575 89.4341 244.551 87.2021 246.951 84.2741L239.463 77.3621C236.055 81.3461 231.831 83.3381 226.791 83.3381C223.671 83.3381 220.887 82.6661 218.439 81.3221C217.207 80.6218 216.11 79.7879 215.145 78.8204ZM190.062 91.5813L188.974 92.4101H178.398V60.0118L190.062 51.126V91.5813ZM190.062 44.7781V42.0101H178.398V53.6639L190.062 44.7781ZM155.994 70.7314V51.5141H172.122V42.0101H128.202V51.5141H144.33V79.6172L155.994 70.7314ZM144.33 85.9651L155.994 77.0793V92.4101H144.33V85.9651ZM52.8401 92.4101L52.7681 62.1701L37.9361 87.0821H32.6801L17.9201 62.8181V92.4101H6.97607V42.0101H16.6241L35.4881 73.3301L54.0641 42.0101H63.6401L63.7841 92.4101H52.8401ZM121.966 42.0101V92.4101H112.39L87.2617 61.8101V92.4101H75.7417V42.0101H85.3897L110.446 72.6101V42.0101H121.966Z" fill="#242582" fill-opacity="0.75"/>
<path d="M51.84 93L51.768 62.76L36.936 87.672H31.68L16.92 63.408V93H5.976V42.6H15.624L34.488 73.92L53.064 42.6H62.64L62.784 93H51.84ZM120.966 42.6V93H111.39L86.2616 62.4V93H74.7416V42.6H84.3896L109.446 73.2V42.6H120.966Z" fill="#242582" fill-opacity="0.75"/>
<rect x="222" y="17" width="20" height="20" rx="5" fill="#2F2FA2" fill-opacity="0.7"/>
<rect x="248" width="30" height="30" rx="5" fill="#2F2FA2" fill-opacity="0.7"/>
<rect x="248" y="37" width="25" height="25" rx="5" fill="#2F2FA2" fill-opacity="0.7"/>
</svg>
