<svg width="283" height="102" viewBox="0 0 283 102" fill="none" xmlns="http://www.w3.org/2000/svg">
<rect x="215" y="20.6429" width="24.2857" height="24.2857" rx="5" fill="white" fill-opacity="0.7"/>
<rect x="246.572" width="36.4286" height="36.4286" rx="5" fill="white" fill-opacity="0.7"/>
<rect x="246.572" y="44.9286" width="30.3571" height="30.3571" rx="5" fill="white" fill-opacity="0.7"/>
<path fill-rule="evenodd" clip-rule="evenodd" d="M237.36 54.4288C235.761 53.186 233.99 52.1444 232.047 51.304C228.543 49.768 224.607 49 220.239 49C215.055 49 210.375 50.128 206.199 52.384C202.071 54.592 198.807 57.688 196.407 61.672C194.055 65.608 192.879 70.072 192.879 75.064C192.879 80.056 194.055 84.544 196.407 88.528C196.619 88.8751 196.837 89.2158 197.062 89.5498L206.259 82.5435C205.211 80.3123 204.687 77.8192 204.687 75.064C204.687 71.944 205.359 69.16 206.703 66.712C208.095 64.264 210.015 62.368 212.463 61.024C214.911 59.632 217.695 58.936 220.815 58.936C223.756 58.936 226.419 59.6062 228.805 60.9465L237.36 54.4288ZM200.284 93.4431L209.169 86.6743C210.134 87.6418 211.231 88.4757 212.463 89.176C214.911 90.52 217.695 91.192 220.815 91.192C225.855 91.192 230.079 89.2 233.487 85.216L240.975 92.128C238.575 95.056 235.599 97.288 232.047 98.824C228.495 100.36 224.535 101.128 220.167 101.128C215.031 101.128 210.375 100.024 206.199 97.816C203.977 96.6017 202.005 95.1441 200.284 93.4431ZM182.998 100.264L184.086 99.4352V58.98L172.422 67.8657V100.264H182.998ZM184.086 49.864V52.6321L172.422 61.5179V49.864H184.086ZM150.018 59.368V78.5853L138.354 87.4711V59.368H122.226V49.864H166.146V59.368H150.018ZM150.018 84.9332L138.354 93.819V100.264H150.018V84.9332ZM56.8063 100.264L56.808 100.854H45.864L45.7946 71.6994L31.9601 94.936H31.3112L30.96 95.5259H25.704L11.9441 72.906V100.264H10.944V100.854H0V50.4539H1.00007V49.864H10.6481L29.1845 80.6401L47.088 50.4539H47.7382L48.0881 49.864H57.6641L57.8081 100.264H56.8063ZM115.99 100.264V49.864H104.47V50.4539H103.47V79.2426L79.4137 49.864H69.7657V50.4539H68.7656V100.854H80.2856V100.264H81.2857V71.4718L105.414 100.854H114.99V100.264H115.99Z" fill="white" fill-opacity="0.7"/>
</svg>
